<svg xmlns="http://www.w3.org/2000/svg" viewBox="0 0 200 207.2401861358533" width="80%" height="80%"><defs data-v-f0facd6a="" id="SvgjsDefs1128"></defs><g data-v-f0facd6a="" id="SvgjsG1129" featurekey="nameFeature-0" transform="matrix(6.011679413637434,0,0,6.011679413637434,4.812151787887776,-50.732534685478086)" fill="#057f7f"><path data-v-f0facd6a="" d="M14.28 29.72 c-1.12 4.68 -3.16 10.16 -8.2 12.08 c-1.4 0.56 -3.24 -0.04 -3.72 -0.64 c-0.08 -0.12 -0.16 -0.24 -0.2 -0.4 c-1.04 -0.12 -2 -0.56 -2.4 -1.12 c-0.68 -0.84 -0.6 -2.12 -0.48 -3.16 c0.64 -5.8 1.48 -11.44 2.4 -17.24 c0.12 -0.8 0.44 -1.4 0.76 -1.88 c-0.6 0.2 -1.36 0.44 -2.48 0.72 c0.12 -3.48 1.44 -6.92 3 -8 c2.16 -1.52 6.08 -2.16 8.36 -0.16 c1 0.88 1.72 2.04 2.2 3.32 c3.2 3.92 1.84 11.88 0.76 16.48 z M12.08 27.64 c1.16 -4.92 2.56 -13.48 -1.4 -16.96 c-1.84 -1.6 -5.16 -1.16 -7.16 0.2 c-1.12 0.8 -2.36 3.64 -2.52 5.88 c0.68 -0.2 2.04 -0.72 2.72 -0.72 c0.24 0 0.6 0.08 0.48 0.52 c-0.12 0.36 -0.56 0.8 -0.8 1.16 c-0.32 0.44 -0.6 0.96 -0.72 1.68 c-0.92 5.76 -1.76 11.4 -2.44 17.2 c-0.08 0.88 -0.16 1.8 0.28 2.44 c0.4 0.52 2.16 1.08 3.48 0.56 c4.92 -1.88 6.96 -7.24 8.08 -11.96 z M9.52 21 c-0.24 3.48 -0.92 8.2 -3.12 11.56 c-0.56 0.84 -1.04 1.6 -2.28 1.48 c0.64 -6.28 1.2 -12.08 2.76 -17.92 c2.68 -1.6 2.76 3.64 2.64 4.88 z M8.56 20.12 c-0.6 2.76 -1.04 5.48 -1.4 8.28 c0.88 -2.6 1.44 -5.72 1.4 -8.28 z M32.44 11.239999999999998 c0.16 1.04 -0.36 4.4 -1.64 4.96 c-1.04 0.44 -2.88 -0.04 -4.16 0.52 c-2.2 9.52 -3.28 15.52 -4.04 26.08 c-0.92 0.4 -2.92 -0.32 -3.8 -1.4 c-1.76 -0.4 -3.48 -1.68 -3.28 -3.28 c0.32 -2.72 1.92 -15.28 3.6 -19.92 c-0.48 0.16 -0.88 0.28 -1.2 0.36 c0 -0.6 0.08 -1.24 0.2 -1.88 c-0.88 0.28 -1.88 0.6 -3 0.92 c0 -3 0.76 -5.36 1.96 -6.56 c1.48 -1.52 11.24 -3.12 14.08 -2.44 c0.08 0.6 0.08 1.56 -0.08 2.6 c0.6 -0.04 1.08 -0.04 1.36 0.04 z M30.24 9.399999999999999 c-1.48 -0.2 -3.84 0.24 -5.36 0.4 c-1.96 0.24 -6.32 1.16 -7.08 1.96 c-0.92 0.88 -1.6 2.8 -1.68 4.52 c0.88 -0.24 5.48 -1.92 5.92 -1 c0.28 0.6 -0.68 1.32 -1.08 1.72 c-0.36 0.36 -0.68 0.72 -0.8 1.2 c-1.76 6.68 -2.84 13.16 -3.64 20.04 c-0.16 1.32 2.68 2.8 3.88 2.4 c0.76 -10.48 1.84 -16.48 4.08 -26.08 c1.44 -0.64 3.2 -0.08 4.24 -0.56 c1.08 -0.44 1.64 -3.44 1.52 -4.6 z"></path></g></svg>